<svg xmlns="http://www.w3.org/2000/svg" viewBox="356 215 566 877" fill="#1c1b18"><title>policymemo.ai</title><path fill-rule="evenodd" d="M732 235L720 238 701 237 685 241 680 239 629 239 625 241 609 240 607 242 565 241 554 244 536 241 520 241 504 245 485 243 480 247 468 247 454 244 444 245 440 248 433 248 431 246 413 248 405 246 400 248 386 247 379 253 376 264 378 282 376 299 381 319 378 331 379 344 377 349 377 357 380 368 378 395 381 411 379 425 381 428 380 443 382 448 378 487 380 500 379 554 383 593 379 608 381 621 380 638 383 652 380 683 384 691 384 713 381 719 382 742 380 745 380 759 382 764 380 794 384 802 382 817 384 841 381 864 381 880 383 883 384 894 382 923 387 930 393 933 408 932 412 934 420 934 430 930 442 932 462 930 470 933 496 934 496 955 491 966 491 975 480 995 458 1011 453 1011 427 1022 419 1027 406 1041 401 1052 401 1059 404 1064 412 1069 439 1069 447 1067 457 1069 480 1067 482 1069 489 1069 495 1066 529 1066 538 1063 542 1060 548 1049 547 1038 549 1021 552 1017 552 1009 555 1003 555 993 557 990 560 971 560 959 564 949 567 931 596 927 641 927 645 925 659 928 680 926 682 928 683 940 690 964 693 989 695 991 694 1003 698 1018 704 1031 705 1051 710 1055 711 1061 719 1066 753 1067 761 1070 781 1069 789 1071 813 1070 816 1072 829 1072 832 1070 854 1072 863 1066 864 1059 866 1058 866 1051 859 1043 858 1037 847 1028 841 1027 837 1020 824 1013 816 1013 809 1007 801 1006 794 1002 784 1002 777 995 772 993 760 972 759 961 755 952 754 925 803 922 806 920 855 920 869 917 883 919 892 914 897 905 896 883 898 878 896 874 896 867 892 865 892 861 897 856 898 848 896 813 898 810 896 791 897 753 895 751 898 717 895 699 897 689 894 684 894 678 897 676 898 672 897 632 899 627 899 616 897 607 898 597 900 595 900 582 897 570 899 560 897 554 899 544 899 536 897 532 897 520 899 515 897 485 900 475 898 461 901 455 899 440 901 435 902 418 898 406 888 397 878 380 871 373 868 373 865 370 865 366 848 350 845 343 830 325 821 318 812 305 795 288 789 286 782 273 776 267 768 264 766 257 745 238ZM819 565L818 569 795 587 767 606 761 607 748 616 744 616 734 622 719 628 711 629 704 633 693 634 684 639 676 638 664 642 652 641 644 644 601 644 584 639 554 636 549 632 531 629 521 622 513 621 508 617 498 615 491 609 474 602 462 592 450 585 451 580 464 571 469 565 502 543 535 525 566 514Q630 500 694 508L717 512 725 517 733 518 739 522 745 523 781 541 788 547 796 549 802 555 812 559ZM739 270L741 270 748 280 757 288 765 301 774 310 779 318 798 335 808 351 852 396 862 403 865 407 864 410 801 413 768 412 765 414 761 414 756 411 741 410 736 297 738 293 737 279Z"/><ellipse cx="631" cy="545" rx="62" ry="53"/></svg>
